<svg width="26" height="32" viewBox="0 0 26 32" fill="none" xmlns="http://www.w3.org/2000/svg">
<g filter="url(#filter0_d)">
<path d="M6.69602 23.5C6.00176 23.4992 5.33452 23.2339 4.83295 22.7593C4.33138 22.2848 4.03405 21.6374 4.00275 20.9517C3.97144 20.266 4.20857 19.5948 4.66485 19.0775C5.12114 18.5601 5.76149 18.2365 6.45285 18.1739C7.16483 18.1104 7.8732 18.3287 8.42256 18.7809C8.97192 19.2331 9.3174 19.8824 9.38319 20.5861C9.44898 21.2899 9.22972 21.9907 8.77351 22.5348C8.3173 23.0789 7.6614 23.4219 6.94971 23.4885C6.86452 23.4962 6.77996 23.5 6.69602 23.5Z" fill="#CCCCCC"/>
<path d="M13.0008 19.1084C12.3075 19.1067 11.6415 18.8413 11.1407 18.3673C10.64 17.8933 10.3429 17.247 10.3111 16.5623C10.2792 15.8777 10.5151 15.2071 10.9697 14.6897C11.4243 14.1723 12.0629 13.8476 12.7531 13.783C13.1103 13.7425 13.4721 13.773 13.8172 13.8727C14.1623 13.9724 14.4838 14.1392 14.7628 14.3634C15.0418 14.5876 15.2727 14.8646 15.4419 15.1782C15.6112 15.4919 15.7153 15.8358 15.7483 16.1897C15.7812 16.5437 15.7423 16.9006 15.6338 17.2395C15.5253 17.5784 15.3495 17.8924 15.1165 18.1632C14.8836 18.434 14.5983 18.656 14.2774 18.8163C13.9564 18.9765 13.6064 19.0718 13.2477 19.0965C13.1646 19.1047 13.0812 19.1084 13.0008 19.1084Z" fill="#CCCCCC"/>
<path d="M6.77044 5.83876C6.28534 5.8391 5.80911 5.71023 5.39181 5.46568C4.97451 5.22114 4.63155 4.86997 4.39899 4.44908C4.16644 4.02819 4.05287 3.55313 4.07023 3.07385C4.08759 2.59456 4.23524 2.12876 4.49765 1.72539C4.76007 1.32203 5.12755 0.996006 5.56148 0.781603C5.9954 0.567199 6.47974 0.472332 6.96357 0.506974C7.44741 0.541616 7.91286 0.704488 8.31101 0.978468C8.70916 1.25245 9.0253 1.62742 9.22619 2.06395C9.41272 2.47046 9.49324 2.91671 9.46038 3.36192C9.42753 3.80712 9.28234 4.23709 9.0381 4.61252C8.79385 4.98796 8.45833 5.2969 8.0622 5.51111C7.66607 5.72532 7.22196 5.83797 6.77044 5.83876Z" fill="#CCCCCC"/>
<path d="M13.0383 10.2761C12.3724 10.2768 11.7298 10.0339 11.2341 9.59433C10.7384 9.15472 10.4247 8.54939 10.3533 7.89484C10.2819 7.24029 10.4579 6.58276 10.8474 6.04879C11.237 5.51483 11.8125 5.14216 12.4632 5.00249C13.114 4.86283 13.794 4.96605 14.3724 5.29228C14.9508 5.61851 15.3867 6.14471 15.5963 6.76961C15.8058 7.39451 15.7742 8.07395 15.5075 8.67718C15.2408 9.28042 14.7578 9.76482 14.1516 10.0372C13.8019 10.1941 13.4224 10.2756 13.0383 10.2761Z" fill="#CCCCCC"/>
<path d="M19.3055 14.7164C18.6392 14.7175 17.996 14.475 17.4997 14.0355C17.0034 13.596 16.6891 12.9905 16.6172 12.3356C16.5453 11.6808 16.7209 11.0227 17.1103 10.4882C17.4997 9.95364 18.0753 9.58038 18.7264 9.44022C19.3774 9.30006 20.0579 9.40291 20.6368 9.72898C21.2158 10.055 21.6523 10.5813 21.8623 11.2064C22.0724 11.8316 22.0412 12.5114 21.7747 13.1152C21.5081 13.7189 21.0252 14.2039 20.4187 14.4767C20.0691 14.6339 19.6896 14.7156 19.3055 14.7164Z" fill="#CCCCCC"/>
<path d="M5.1766 22.3961C5.58476 22.7823 6.12882 22.9992 6.69602 23L5.1766 22.3961ZM5.1766 22.3961C4.76846 22.01 4.52759 21.4843 4.50223 20.9289M5.1766 22.3961L4.50223 20.9289M4.50223 20.9289C4.47687 20.3735 4.66885 19.8288 5.03983 19.4082M4.50223 20.9289L5.03983 19.4082M5.03983 19.4082C5.4109 18.9875 5.93276 18.7232 6.4976 18.6719M5.03983 19.4082L6.4976 18.6719M6.4976 18.6719C7.07938 18.6201 7.65738 18.7986 8.10479 19.1669C8.55208 19.5352 8.83206 20.0625 8.88536 20.6326C8.93866 21.2027 8.7612 21.7712 8.39036 22.2135C8.01945 22.6559 7.48502 22.9361 6.90359 22.9906C6.83367 22.9969 6.76469 23 6.69662 23L6.4976 18.6719ZM11.5659 9.22025C11.9694 9.57817 12.4937 9.77665 13.0378 9.77609C13.3515 9.77567 13.6614 9.70912 13.9467 9.58107L11.5659 9.22025ZM11.5659 9.22025C11.1624 8.86247 10.9082 8.37088 10.8503 7.84064M11.5659 9.22025L10.8503 7.84064M10.8503 7.84064C10.7925 7.31044 10.935 6.77722 11.2514 6.34347M10.8503 7.84064L11.2514 6.34347M11.2514 6.34347C11.5679 5.90954 12.0366 5.60544 12.5681 5.49136M11.2514 6.34347L12.5681 5.49136M12.5681 5.49136C13.0998 5.37727 13.655 5.46172 14.1267 5.72778M12.5681 5.49136L14.1267 5.72778M14.1267 5.72778C14.5983 5.99377 14.9523 6.42191 15.1222 6.92858M14.1267 5.72778L15.1222 6.92858M15.1222 6.92858C15.2921 7.43512 15.2665 7.98575 15.0502 8.475M15.1222 6.92858L15.0502 8.475M15.0502 8.475C14.8338 8.96435 14.4414 9.35881 13.9468 9.58102L15.0502 8.475ZM12.7997 14.2808L12.7997 14.2809L12.8094 14.2798C13.1012 14.2468 13.3967 14.2717 13.6785 14.3531C13.9602 14.4344 14.2224 14.5706 14.4496 14.7531C14.6768 14.9357 14.8645 15.161 15.0019 15.4157C15.1393 15.6703 15.2237 15.9492 15.2504 16.2361C15.2771 16.5229 15.2456 16.8122 15.1576 17.0871C15.0696 17.3619 14.9269 17.617 14.7375 17.8371C14.5481 18.0573 14.3157 18.2382 14.054 18.369C13.7922 18.4997 13.5064 18.5775 13.2134 18.5977L13.206 18.5982L13.1987 18.5989C13.1335 18.6053 13.0669 18.6083 13.0019 18.6084C12.4353 18.6069 11.8921 18.39 11.4845 18.0042C11.077 17.6185 10.8363 17.0937 10.8105 16.5391C10.7847 15.9845 10.9757 15.4404 11.3453 15.0197C11.7151 14.5988 12.2357 14.3336 12.7997 14.2808ZM6.76969 5.33877C6.37344 5.33897 5.98478 5.23364 5.6446 5.0343C5.30435 4.83491 5.02546 4.54902 4.83663 4.20727C4.64783 3.86556 4.55584 3.48032 4.5699 3.09195C4.58397 2.70357 4.70361 2.3257 4.91677 1.99805C5.12996 1.67035 5.42899 1.40477 5.78297 1.22987C6.13699 1.05495 6.53252 0.977391 6.92786 1.0057C7.3232 1.034 7.70307 1.16707 8.02757 1.39037C8.35194 1.61357 8.6088 1.91853 8.77184 2.27268C8.92317 2.60256 8.98836 2.96435 8.96174 3.32512C8.93511 3.68596 8.81742 4.03484 8.61898 4.33986C8.42052 4.64493 8.14749 4.89657 7.82437 5.0713C7.50126 5.24602 7.13864 5.33809 6.76969 5.33877ZM19.3045 14.2164C18.76 14.2173 18.2353 14.0191 17.8312 13.6612C17.4272 13.3034 17.1724 12.8117 17.1142 12.2811C17.056 11.7505 17.1981 11.2169 17.5145 10.7826C17.8309 10.3481 18.2998 10.0435 18.8316 9.92902C19.3635 9.8145 19.9192 9.89867 20.3915 10.1646C20.8636 10.4305 21.2181 10.8588 21.3884 11.3657C21.5587 11.8725 21.5334 12.4235 21.3172 12.9133C21.101 13.4031 20.7085 13.798 20.2137 14.0207C19.9284 14.149 19.6184 14.2157 19.3045 14.2164Z" stroke="black"/>
</g>
<defs>
<filter id="filter0_d" x="0" y="0.5" width="26" height="31" filterUnits="userSpaceOnUse" color-interpolation-filters="sRGB">
<feFlood flood-opacity="0" result="BackgroundImageFix"/>
<feColorMatrix in="SourceAlpha" type="matrix" values="0 0 0 0 0 0 0 0 0 0 0 0 0 0 0 0 0 0 127 0" result="hardAlpha"/>
<feOffset dy="4"/>
<feGaussianBlur stdDeviation="2"/>
<feComposite in2="hardAlpha" operator="out"/>
<feColorMatrix type="matrix" values="0 0 0 0 0 0 0 0 0 0 0 0 0 0 0 0 0 0 0.25 0"/>
<feBlend mode="normal" in2="BackgroundImageFix" result="effect1_dropShadow"/>
<feBlend mode="normal" in="SourceGraphic" in2="effect1_dropShadow" result="shape"/>
</filter>
</defs>
</svg>
